STARTFONT 2.1
COMMENT
COMMENT Converted from OpenType font "Hieroglyfy_tabor30-Regular.ttf" by "otf2bdf 3.0".
COMMENT
FONT -FreeType-Hieroglyfy_tabor30-Medium-R-Normal--39-280-100-100-P-165-ISO10646-1
SIZE 28 100 100
FONTBOUNDINGBOX 32 27 0 -1
STARTPROPERTIES 19
FOUNDRY "FreeType"
FAMILY_NAME "Hieroglyfy_tabor30"
WEIGHT_NAME "Medium"
SLANT "R"
SETWIDTH_NAME "Normal"
ADD_STYLE_NAME ""
PIXEL_SIZE 39
POINT_SIZE 280
RESOLUTION_X 100
RESOLUTION_Y 100
SPACING "P"
AVERAGE_WIDTH 165
CHARSET_REGISTRY "ISO10646"
CHARSET_ENCODING "1"
FONT_ASCENT 26
FONT_DESCENT 1
COPYRIGHT "-FreeType-Hieroglyfy_tabor30-Medium-R-Normal--39-280-100-100-P-165-ISO10646-1"
_OTF_FONTFILE "Hieroglyfy_tabor30-Regular.ttf"
_OTF_PSNAME "Hieroglyfy_tabor30-Regular"
ENDPROPERTIES
CHARS 70
STARTCHAR 0000
ENCODING 0
SWIDTH 257 0
DWIDTH 10 0
BBX 0 0 0 0
BITMAP
ENDCHAR
STARTCHAR 000D
ENCODING 13
SWIDTH 257 0
DWIDTH 10 0
BBX 0 0 0 0
BITMAP
ENDCHAR
STARTCHAR 0020
ENCODING 32
SWIDTH 257 0
DWIDTH 10 0
BBX 0 0 0 0
BITMAP
ENDCHAR
STARTCHAR 0021
ENCODING 33
SWIDTH 437 0
DWIDTH 17 0
BBX 13 13 2 5
BITMAP
0008
0078
01F0
07C0
3F00
F800
E000
F800
3F00
07C0
01F8
0078
0008
ENDCHAR
STARTCHAR 0022
ENCODING 34
SWIDTH 437 0
DWIDTH 17 0
BBX 13 14 2 3
BITMAP
2000
1018
0820
0440
0680
0300
0300
04C0
0860
1030
2008
4000
8000
8000
ENDCHAR
STARTCHAR 0027
ENCODING 39
SWIDTH 411 0
DWIDTH 16 0
BBX 12 12 2 6
BITMAP
4000
2010
1020
1040
0980
0700
0600
0F00
1980
30C0
6060
C010
ENDCHAR
STARTCHAR 002C
ENCODING 44
SWIDTH 231 0
DWIDTH 9 0
BBX 5 24 2 0
BITMAP
F8
F8
C0
C0
C0
C0
C0
C0
C0
C0
C0
C0
C0
C0
C0
C0
C0
C0
C0
C0
C0
C0
E0
F8
ENDCHAR
STARTCHAR 002E
ENCODING 46
SWIDTH 231 0
DWIDTH 9 0
BBX 5 25 2 0
BITMAP
F8
F8
18
18
18
18
18
18
18
18
18
18
18
18
18
18
18
18
18
18
18
18
18
F8
F8
ENDCHAR
STARTCHAR 003A
ENCODING 58
SWIDTH 411 0
DWIDTH 16 0
BBX 12 12 2 4
BITMAP
2000
3010
0C20
0640
0380
0300
0680
0C40
1860
3020
4010
8010
ENDCHAR
STARTCHAR 003B
ENCODING 59
SWIDTH 462 0
DWIDTH 18 0
BBX 14 14 2 3
BITMAP
0800
0400
0608
0330
01A0
00C0
01A0
0310
0618
0808
1008
2004
4000
8000
ENDCHAR
STARTCHAR 003F
ENCODING 63
SWIDTH 411 0
DWIDTH 16 0
BBX 12 20 2 4
BITMAP
1F80
3FE0
70F0
6070
E030
C030
0030
0070
00E0
01C0
0380
0300
0700
0600
0600
0000
0000
0700
0700
0700
ENDCHAR
STARTCHAR 0041
ENCODING 65
SWIDTH 745 0
DWIDTH 29 0
BBX 25 26 2 -1
BITMAP
0E000000
11000000
11000000
11000000
09060000
060C0000
02300000
01600000
01C00000
010F8000
03304000
05C02000
18801000
30801080
C0800900
00800900
00400900
00400900
00401100
00201100
00202100
00106100
00104100
00188100
00080100
00040100
ENDCHAR
STARTCHAR 0042
ENCODING 66
SWIDTH 745 0
DWIDTH 29 0
BBX 25 23 2 1
BITMAP
00003000
0000C800
00000400
00000400
00000000
00000000
001E0000
00230000
00C20000
01040000
000C0800
00081400
00100200
00100100
00100080
C0200080
20200000
18200000
07400000
00C00000
00300000
000E0000
00018000
ENDCHAR
STARTCHAR 0043
ENCODING 67
SWIDTH 565 0
DWIDTH 22 0
BBX 18 19 2 0
BITMAP
800000
400000
200000
100000
180000
0C0000
040000
000100
000300
400280
200480
300440
1803C0
080000
040040
020080
000300
000E00
007000
ENDCHAR
STARTCHAR 0044
ENCODING 68
SWIDTH 617 0
DWIDTH 24 0
BBX 19 19 2 4
BITMAP
004000
002380
001C60
007020
008820
030420
040420
180060
200100
C00000
000000
018000
024000
022000
021000
041800
046000
078000
040000
ENDCHAR
STARTCHAR 0045
ENCODING 69
SWIDTH 437 0
DWIDTH 17 0
BBX 12 18 2 6
BITMAP
0010
8010
8010
4010
4220
2240
1B80
0600
0200
0200
0200
0200
0200
0300
04C0
1820
3010
1FF0
ENDCHAR
STARTCHAR 0046
ENCODING 70
SWIDTH 694 0
DWIDTH 27 0
BBX 22 21 2 4
BITMAP
000020
000098
000050
000020
000180
000E00
00F000
034000
004000
004000
004000
004400
007800
004000
008008
008814
01300C
010000
020000
8C0000
780000
ENDCHAR
STARTCHAR 0047
ENCODING 71
SWIDTH 540 0
DWIDTH 21 0
BBX 17 15 2 8
BITMAP
00C000
008200
010400
020800
000000
000000
3C0000
430000
80C200
803C00
000000
000000
060000
098080
007F00
ENDCHAR
STARTCHAR 0048
ENCODING 72
SWIDTH 874 0
DWIDTH 34 0
BBX 30 24 2 1
BITMAP
00000004
00000004
00000008
00000008
00200008
00400010
00400010
00800020
00800020
010F8040
010840C0
02084080
02088100
020F8100
04000200
04000600
08000400
08000800
10000800
10001000
20001000
60002000
40000000
80000000
ENDCHAR
STARTCHAR 0049
ENCODING 73
SWIDTH 668 0
DWIDTH 26 0
BBX 22 19 2 5
BITMAP
014000
013000
021800
020400
040300
080180
080040
100020
204018
204004
404004
404000
804000
004000
004000
004000
004000
604000
1F8000
ENDCHAR
STARTCHAR 004A
ENCODING 74
SWIDTH 694 0
DWIDTH 27 0
BBX 23 15 2 7
BITMAP
000080
000160
000130
000238
000244
000282
40070C
400630
800F80
801800
803000
806000
40C000
430000
3E0000
ENDCHAR
STARTCHAR 004B
ENCODING 75
SWIDTH 540 0
DWIDTH 21 0
BBX 17 20 2 3
BITMAP
800000
800000
400000
600000
3CF800
071000
103000
106000
088000
070000
030000
008000
000000
000000
00C080
016080
021100
040E00
181800
03E000
ENDCHAR
STARTCHAR 004C
ENCODING 76
SWIDTH 565 0
DWIDTH 22 0
BBX 18 11 2 4
BITMAP
003FC0
00C000
014000
024000
008000
008000
010000
010000
020000
C60000
380000
ENDCHAR
STARTCHAR 004D
ENCODING 77
SWIDTH 591 0
DWIDTH 23 0
BBX 19 21 2 3
BITMAP
010000
020800
040800
180500
300500
600500
C00500
700480
0F0480
018480
060480
180480
200280
300280
180280
060240
010240
008240
004140
002020
000020
ENDCHAR
STARTCHAR 004E
ENCODING 78
SWIDTH 488 0
DWIDTH 19 0
BBX 15 16 2 4
BITMAP
9000
9000
9000
9200
9300
9100
9080
90C0
9040
9020
9010
9010
9008
9004
9004
0002
ENDCHAR
STARTCHAR 004F
ENCODING 79
SWIDTH 385 0
DWIDTH 15 0
BBX 11 15 2 6
BITMAP
7000
8E00
8300
4100
4100
2100
2200
1200
1100
2080
2040
4040
4020
3820
0380
ENDCHAR
STARTCHAR 0050
ENCODING 80
SWIDTH 411 0
DWIDTH 16 0
BBX 12 18 2 7
BITMAP
0080
0170
0110
4110
4110
41E0
4000
4000
4000
4000
4000
4000
4000
8000
8000
8000
8000
8000
ENDCHAR
STARTCHAR 0051
ENCODING 81
SWIDTH 540 0
DWIDTH 21 0
BBX 17 17 2 5
BITMAP
004000
024000
024000
042000
042000
082000
081000
101000
101000
202800
201800
400C00
40FC00
FF0400
C00200
000100
000080
ENDCHAR
STARTCHAR 0052
ENCODING 82
SWIDTH 565 0
DWIDTH 22 0
BBX 17 17 2 6
BITMAP
400000
580000
880000
880000
F00700
100880
180880
080880
080880
080A80
080500
080800
041000
043000
062000
024000
008000
ENDCHAR
STARTCHAR 0053
ENCODING 83
SWIDTH 308 0
DWIDTH 12 0
BBX 8 21 2 3
BITMAP
01
02
02
04
08
0F
19
02
02
02
04
04
08
08
10
10
20
40
40
80
80
ENDCHAR
STARTCHAR 0054
ENCODING 84
SWIDTH 591 0
DWIDTH 23 0
BBX 19 24 2 2
BITMAP
002000
004000
008000
010000
040000
040000
020000
010000
008000
004000
014000
022000
0C1000
181000
200800
C00C00
000400
000200
000300
000100
000080
0000C0
000060
000020
ENDCHAR
STARTCHAR 0055
ENCODING 85
SWIDTH 462 0
DWIDTH 18 0
BBX 13 18 2 8
BITMAP
8000
8308
4688
4448
4248
4190
4010
2010
2020
2020
2020
2040
2040
1080
1080
1080
1100
0800
ENDCHAR
STARTCHAR 0056
ENCODING 86
SWIDTH 514 0
DWIDTH 20 0
BBX 15 19 2 7
BITMAP
0046
0038
0020
8040
4040
4080
4080
2100
2200
2200
1400
1400
0800
0800
0C00
0400
0200
0300
0100
ENDCHAR
STARTCHAR 0057
ENCODING 87
SWIDTH 462 0
DWIDTH 18 0
BBX 14 21 2 4
BITMAP
07C0
0000
0200
0200
0400
0800
1000
2000
23C0
4000
8100
0200
0200
0400
0800
007C
0010
0020
0040
0080
0100
ENDCHAR
STARTCHAR 0058
ENCODING 88
SWIDTH 437 0
DWIDTH 17 0
BBX 12 16 2 6
BITMAP
0200
0200
0200
0200
0200
0600
FFF0
0200
0400
0400
0400
0400
0400
0400
0400
0400
ENDCHAR
STARTCHAR 0059
ENCODING 89
SWIDTH 720 0
DWIDTH 28 0
BBX 24 17 2 7
BITMAP
00FE00
002600
002400
201800
60180C
50000E
F91D12
00621B
00080C
000800
000800
000800
000800
000800
000800
000800
000800
ENDCHAR
STARTCHAR 005A
ENCODING 90
SWIDTH 488 0
DWIDTH 19 0
BBX 15 22 2 4
BITMAP
1FFA
6004
0000
0000
FFC0
0000
0000
0000
4000
2000
1800
0C00
0600
0300
0100
0080
0040
0040
0020
0010
0010
0008
ENDCHAR
STARTCHAR 0061
ENCODING 97
SWIDTH 540 0
DWIDTH 21 0
BBX 16 14 2 3
BITMAP
1000
0C00
0308
0190
00E0
0060
0090
0108
020C
0406
0803
3000
6000
8000
ENDCHAR
STARTCHAR 0062
ENCODING 98
SWIDTH 488 0
DWIDTH 19 0
BBX 15 15 2 3
BITMAP
0004
0008
C010
3020
1840
0C80
0700
0300
0580
0840
1020
3018
600C
4002
8000
ENDCHAR
STARTCHAR 0063
ENCODING 99
SWIDTH 617 0
DWIDTH 24 0
BBX 20 15 2 3
BITMAP
000100
100200
080400
040800
031000
01E000
00C000
00A000
031800
060400
0C0300
100180
200040
400020
800010
ENDCHAR
STARTCHAR 0064
ENCODING 100
SWIDTH 668 0
DWIDTH 26 0
BBX 22 16 2 1
BITMAP
010030
00C040
002180
001B00
000E00
000A00
001100
002080
00C040
018020
020010
040008
180004
300000
400000
800000
ENDCHAR
STARTCHAR 0065
ENCODING 101
SWIDTH 308 0
DWIDTH 12 0
BBX 7 2 2 10
BITMAP
FE
FE
ENDCHAR
STARTCHAR 0066
ENCODING 102
SWIDTH 642 0
DWIDTH 25 0
BBX 21 16 2 0
BITMAP
030000
008000
004000
006000
003200
001400
000800
001600
002100
0040C0
018060
020010
040008
180000
200000
C00000
ENDCHAR
STARTCHAR 0067
ENCODING 103
SWIDTH 642 0
DWIDTH 25 0
BBX 21 15 2 4
BITMAP
040000
020000
010000
00C000
006000
003000
001000
000800
010400
020200
0C0180
100070
200008
400000
800000
ENDCHAR
STARTCHAR 0068
ENCODING 104
SWIDTH 514 0
DWIDTH 20 0
BBX 16 14 2 5
BITMAP
0004
000C
3010
0820
0440
0380
0180
0380
0460
0810
1008
2006
4001
8000
ENDCHAR
STARTCHAR 0069
ENCODING 105
SWIDTH 668 0
DWIDTH 26 0
BBX 22 17 2 2
BITMAP
000030
000060
000080
000100
000200
000500
0008C0
003020
006010
00C00C
018000
030000
060000
0C0000
100000
200000
C00000
ENDCHAR
STARTCHAR 006A
ENCODING 106
SWIDTH 591 0
DWIDTH 23 0
BBX 19 16 2 4
BITMAP
000100
000200
000400
000800
001800
023000
012000
00C000
01E000
033000
060800
0C0400
100200
200180
400040
800020
ENDCHAR
STARTCHAR 006B
ENCODING 107
SWIDTH 745 0
DWIDTH 29 0
BBX 25 14 2 1
BITMAP
3E006000
01008000
00C20000
00240000
00180000
002C0000
00420000
01810000
02008000
0C006000
18003000
20000C00
C0000300
00000080
ENDCHAR
STARTCHAR 006C
ENCODING 108
SWIDTH 694 0
DWIDTH 27 0
BBX 23 11 2 5
BITMAP
600600
180800
063000
01E000
00E000
011800
060600
080180
100060
200018
C00006
ENDCHAR
STARTCHAR 006D
ENCODING 109
SWIDTH 540 0
DWIDTH 21 0
BBX 17 14 2 3
BITMAP
200100
180200
040C00
021800
012000
00C000
00E000
013000
020800
0C0600
180100
200080
400000
800000
ENDCHAR
STARTCHAR 006E
ENCODING 110
SWIDTH 617 0
DWIDTH 24 0
BBX 20 17 2 0
BITMAP
700000
0C0040
030080
00C100
006300
001E00
000C00
001300
0020C0
004060
018010
030000
040000
180000
300000
400000
800000
ENDCHAR
STARTCHAR 006F
ENCODING 111
SWIDTH 668 0
DWIDTH 26 0
BBX 21 16 2 1
BITMAP
008008
006030
001040
000880
000700
000600
000980
0010C0
006020
008010
010008
060000
080000
100000
600000
800000
ENDCHAR
STARTCHAR 0070
ENCODING 112
SWIDTH 540 0
DWIDTH 21 0
BBX 17 12 2 4
BITMAP
300180
080200
060C00
031000
00E000
00C000
012000
061800
080600
100180
600000
800000
ENDCHAR
STARTCHAR 0071
ENCODING 113
SWIDTH 668 0
DWIDTH 26 0
BBX 22 16 2 1
BITMAP
040018
020020
0180C0
004100
002200
001400
001800
003400
004200
008100
030080
040060
080018
100004
600000
800000
ENDCHAR
STARTCHAR 0072
ENCODING 114
SWIDTH 591 0
DWIDTH 23 0
BBX 19 16 2 3
BITMAP
100000
080000
040600
020C00
011000
00E000
004000
00A000
011000
061800
080C00
100600
600300
800180
0000C0
000060
ENDCHAR
STARTCHAR 0073
ENCODING 115
SWIDTH 694 0
DWIDTH 27 0
BBX 23 14 2 3
BITMAP
300180
080200
060400
018800
007000
007000
00CC00
018600
020100
0400C0
080060
300010
60000C
800002
ENDCHAR
STARTCHAR 0074
ENCODING 116
SWIDTH 642 0
DWIDTH 25 0
BBX 21 17 2 -1
BITMAP
020000
018000
004000
002100
001A00
000C00
000A00
001100
0020C0
00C020
010010
020008
040000
080000
100000
200000
C00000
ENDCHAR
STARTCHAR 0075
ENCODING 117
SWIDTH 617 0
DWIDTH 24 0
BBX 20 13 2 4
BITMAP
200180
180200
040C00
031000
00E000
00E000
011000
020C00
0C0300
100080
200060
400010
800000
ENDCHAR
STARTCHAR 0076
ENCODING 118
SWIDTH 565 0
DWIDTH 22 0
BBX 18 12 2 3
BITMAP
000400
020800
011000
00E000
00E000
019000
020800
040400
080200
100000
6000C0
800000
ENDCHAR
STARTCHAR 0077
ENCODING 119
SWIDTH 591 0
DWIDTH 23 0
BBX 19 12 2 4
BITMAP
000180
040600
020800
019000
006000
00B000
011800
060400
0C0200
100100
200080
C00060
ENDCHAR
STARTCHAR 0078
ENCODING 120
SWIDTH 617 0
DWIDTH 24 0
BBX 20 14 2 3
BITMAP
000080
000300
000400
020800
019000
006000
006000
009800
010C00
060600
0C0100
100080
600070
800000
ENDCHAR
STARTCHAR 0079
ENCODING 121
SWIDTH 642 0
DWIDTH 25 0
BBX 21 12 2 5
BITMAP
001000
002000
004000
108000
090000
070000
078000
044000
083000
100C00
200300
C000F8
ENDCHAR
STARTCHAR 007A
ENCODING 122
SWIDTH 642 0
DWIDTH 25 0
BBX 20 13 2 4
BITMAP
000100
0C0300
030400
00D800
007000
007800
008600
010180
020060
0C0010
100000
200000
C00000
ENDCHAR
STARTCHAR 00A0
ENCODING 160
SWIDTH 257 0
DWIDTH 10 0
BBX 0 0 0 0
BITMAP
ENDCHAR
STARTCHAR 2018
ENCODING 8216
SWIDTH 411 0
DWIDTH 16 0
BBX 12 12 2 6
BITMAP
4000
2010
1020
1040
0980
0700
0600
0F00
1980
30C0
6060
C010
ENDCHAR
STARTCHAR 2019
ENCODING 8217
SWIDTH 411 0
DWIDTH 16 0
BBX 12 12 2 6
BITMAP
4000
2010
1020
1040
0980
0700
0600
0F00
1980
30C0
6060
C010
ENDCHAR
STARTCHAR 201A
ENCODING 8218
SWIDTH 411 0
DWIDTH 16 0
BBX 12 12 2 6
BITMAP
4000
2010
1020
1040
0980
0700
0600
0F00
1980
30C0
6060
C010
ENDCHAR
STARTCHAR 201C
ENCODING 8220
SWIDTH 437 0
DWIDTH 17 0
BBX 13 14 2 3
BITMAP
2000
1018
0820
0440
0680
0300
0300
04C0
0860
1030
2008
4000
8000
8000
ENDCHAR
STARTCHAR 201D
ENCODING 8221
SWIDTH 437 0
DWIDTH 17 0
BBX 13 14 2 3
BITMAP
2000
1018
0820
0440
0680
0300
0300
04C0
0860
1030
2008
4000
8000
8000
ENDCHAR
STARTCHAR 201E
ENCODING 8222
SWIDTH 437 0
DWIDTH 17 0
BBX 13 14 2 3
BITMAP
2000
1018
0820
0440
0680
0300
0300
04C0
0860
1030
2008
4000
8000
8000
ENDCHAR
ENDFONT
